<svg width="375" height="285" viewBox="0 0 375 285" fill="none" xmlns="http://www.w3.org/2000/svg">
<circle cx="269.5" cy="32.5" r="6.5" fill="#D61355"/>
<ellipse cx="114.5" cy="10" rx="10.5" ry="10" fill="#D61355"/>
<ellipse cx="109" cy="136.5" rx="5" ry="5.5" fill="url(#paint0_linear_194_41)"/>
<ellipse cx="257.5" cy="160" rx="2.5" ry="2" fill="url(#paint1_linear_194_41)"/>
<path d="M49.75 252.14V260.06H37.24V264.47H46.24V271.985H37.24V284H27.25V252.14H49.75ZM65.1938 258.305C67.7438 258.305 70.0388 258.83 72.0788 259.88C74.1188 260.93 75.7088 262.445 76.8488 264.425C78.0188 266.375 78.6038 268.67 78.6038 271.31C78.6038 273.95 78.0188 276.26 76.8488 278.24C75.7088 280.19 74.1188 281.69 72.0788 282.74C70.0388 283.79 67.7438 284.315 65.1938 284.315C62.6438 284.315 60.3488 283.79 58.3088 282.74C56.2688 281.69 54.6638 280.19 53.4938 278.24C52.3538 276.26 51.7838 273.95 51.7838 271.31C51.7838 268.67 52.3538 266.375 53.4938 264.425C54.6638 262.445 56.2688 260.93 58.3088 259.88C60.3488 258.83 62.6438 258.305 65.1938 258.305ZM65.1938 266.945C64.2638 266.945 63.4838 267.32 62.8538 268.07C62.2238 268.79 61.9088 269.87 61.9088 271.31C61.9088 272.75 62.2088 273.845 62.8088 274.595C63.4388 275.315 64.2338 275.675 65.1938 275.675C66.1238 275.675 66.9038 275.315 67.5338 274.595C68.1638 273.845 68.4788 272.75 68.4788 271.31C68.4788 269.87 68.1638 268.79 67.5338 268.07C66.9038 267.32 66.1238 266.945 65.1938 266.945ZM93.8022 258.305C96.3522 258.305 98.6472 258.83 100.687 259.88C102.727 260.93 104.317 262.445 105.457 264.425C106.627 266.375 107.212 268.67 107.212 271.31C107.212 273.95 106.627 276.26 105.457 278.24C104.317 280.19 102.727 281.69 100.687 282.74C98.6472 283.79 96.3522 284.315 93.8022 284.315C91.2522 284.315 88.9572 283.79 86.9172 282.74C84.8772 281.69 83.2722 280.19 82.1022 278.24C80.9622 276.26 80.3922 273.95 80.3922 271.31C80.3922 268.67 80.9622 266.375 82.1022 264.425C83.2722 262.445 84.8772 260.93 86.9172 259.88C88.9572 258.83 91.2522 258.305 93.8022 258.305ZM93.8022 266.945C92.8722 266.945 92.0922 267.32 91.4622 268.07C90.8322 268.79 90.5172 269.87 90.5172 271.31C90.5172 272.75 90.8172 273.845 91.4172 274.595C92.0472 275.315 92.8422 275.675 93.8022 275.675C94.7322 275.675 95.5122 275.315 96.1422 274.595C96.7722 273.845 97.0872 272.75 97.0872 271.31C97.0872 269.87 96.7722 268.79 96.1422 268.07C95.5122 267.32 94.7322 266.945 93.8022 266.945ZM119.486 258.305C121.136 258.305 122.546 258.65 123.716 259.34C124.916 260 125.831 260.915 126.461 262.085V250.7H136.451V284H126.461V280.535C125.831 281.705 124.916 282.635 123.716 283.325C122.546 283.985 121.136 284.315 119.486 284.315C117.506 284.315 115.721 283.805 114.131 282.785C112.541 281.735 111.281 280.235 110.351 278.285C109.451 276.305 109.001 273.98 109.001 271.31C109.001 268.64 109.451 266.33 110.351 264.38C111.281 262.4 112.541 260.9 114.131 259.88C115.721 258.83 117.506 258.305 119.486 258.305ZM122.816 267.035C121.736 267.035 120.851 267.41 120.161 268.16C119.471 268.91 119.126 269.96 119.126 271.31C119.126 272.66 119.471 273.71 120.161 274.46C120.851 275.21 121.736 275.585 122.816 275.585C123.896 275.585 124.781 275.21 125.471 274.46C126.161 273.71 126.506 272.66 126.506 271.31C126.506 269.96 126.161 268.91 125.471 268.16C124.781 267.41 123.896 267.035 122.816 267.035ZM163.433 251.825C166.193 251.825 168.653 252.35 170.813 253.4C173.003 254.42 174.773 255.875 176.123 257.765C177.503 259.655 178.418 261.86 178.868 264.38H168.338C167.858 263.33 167.168 262.52 166.268 261.95C165.398 261.35 164.393 261.05 163.253 261.05C161.573 261.05 160.238 261.68 159.248 262.94C158.288 264.2 157.808 265.895 157.808 268.025C157.808 270.155 158.288 271.85 159.248 273.11C160.238 274.37 161.573 275 163.253 275C164.393 275 165.398 274.715 166.268 274.145C167.168 273.545 167.858 272.72 168.338 271.67H178.868C178.418 274.19 177.503 276.395 176.123 278.285C174.773 280.175 173.003 281.645 170.813 282.695C168.653 283.715 166.193 284.225 163.433 284.225C160.223 284.225 157.433 283.55 155.063 282.2C152.693 280.82 150.863 278.9 149.573 276.44C148.313 273.98 147.683 271.175 147.683 268.025C147.683 264.875 148.313 262.07 149.573 259.61C150.863 257.15 152.693 255.245 155.063 253.895C157.433 252.515 160.223 251.825 163.433 251.825ZM194.525 258.305C197.075 258.305 199.37 258.83 201.41 259.88C203.45 260.93 205.04 262.445 206.18 264.425C207.35 266.375 207.935 268.67 207.935 271.31C207.935 273.95 207.35 276.26 206.18 278.24C205.04 280.19 203.45 281.69 201.41 282.74C199.37 283.79 197.075 284.315 194.525 284.315C191.975 284.315 189.68 283.79 187.64 282.74C185.6 281.69 183.995 280.19 182.825 278.24C181.685 276.26 181.115 273.95 181.115 271.31C181.115 268.67 181.685 266.375 182.825 264.425C183.995 262.445 185.6 260.93 187.64 259.88C189.68 258.83 191.975 258.305 194.525 258.305ZM194.525 266.945C193.595 266.945 192.815 267.32 192.185 268.07C191.555 268.79 191.24 269.87 191.24 271.31C191.24 272.75 191.54 273.845 192.14 274.595C192.77 275.315 193.565 275.675 194.525 275.675C195.455 275.675 196.235 275.315 196.865 274.595C197.495 273.845 197.81 272.75 197.81 271.31C197.81 269.87 197.495 268.79 196.865 268.07C196.235 267.32 195.455 266.945 194.525 266.945ZM237.938 258.62V284H227.948V280.13C227.168 281.33 226.118 282.305 224.798 283.055C223.508 283.805 221.963 284.18 220.163 284.18C217.253 284.18 214.973 283.205 213.323 281.255C211.703 279.305 210.893 276.665 210.893 273.335V258.62H220.838V272.075C220.838 273.275 221.153 274.235 221.783 274.955C222.443 275.645 223.313 275.99 224.393 275.99C225.503 275.99 226.373 275.645 227.003 274.955C227.633 274.235 227.948 273.275 227.948 272.075V258.62H237.938ZM252.44 263.3C253.46 261.83 254.705 260.66 256.175 259.79C257.645 258.89 259.175 258.44 260.765 258.44V269.105H257.93C256.04 269.105 254.645 269.435 253.745 270.095C252.875 270.755 252.44 271.925 252.44 273.605V284H242.45V258.62H252.44V263.3ZM262.736 251.69C262.736 250.25 263.261 249.065 264.311 248.135C265.361 247.175 266.756 246.695 268.496 246.695C270.206 246.695 271.586 247.175 272.636 248.135C273.686 249.065 274.211 250.25 274.211 251.69C274.211 253.1 273.686 254.27 272.636 255.2C271.586 256.13 270.206 256.595 268.496 256.595C266.756 256.595 265.361 256.13 264.311 255.2C263.261 254.27 262.736 253.1 262.736 251.69ZM273.446 258.62V284H263.456V258.62H273.446ZM302.528 271.085C302.528 271.715 302.453 272.375 302.303 273.065H286.328C286.418 274.325 286.703 275.195 287.183 275.675C287.663 276.125 288.293 276.35 289.073 276.35C290.153 276.35 290.933 275.855 291.413 274.865H301.988C301.628 276.665 300.863 278.285 299.693 279.725C298.553 281.135 297.098 282.26 295.328 283.1C293.588 283.91 291.668 284.315 289.568 284.315C287.048 284.315 284.798 283.79 282.818 282.74C280.868 281.69 279.338 280.19 278.228 278.24C277.148 276.26 276.608 273.95 276.608 271.31C276.608 268.67 277.148 266.375 278.228 264.425C279.338 262.445 280.868 260.93 282.818 259.88C284.798 258.83 287.048 258.305 289.568 258.305C292.088 258.305 294.323 258.83 296.273 259.88C298.253 260.9 299.783 262.37 300.863 264.29C301.973 266.21 302.528 268.475 302.528 271.085ZM292.403 268.97C292.403 268.01 292.133 267.305 291.593 266.855C291.053 266.375 290.378 266.135 289.568 266.135C287.738 266.135 286.688 267.08 286.418 268.97H292.403ZM315.678 263.3C316.698 261.83 317.943 260.66 319.413 259.79C320.883 258.89 322.413 258.44 324.003 258.44V269.105H321.168C319.278 269.105 317.883 269.435 316.983 270.095C316.113 270.755 315.678 271.925 315.678 273.605V284H305.688V258.62H315.678V263.3ZM336.683 258.305C340.133 258.305 342.878 259.145 344.918 260.825C346.988 262.475 348.293 264.665 348.833 267.395H339.518C339.128 265.955 338.108 265.235 336.458 265.235C335.528 265.235 335.063 265.595 335.063 266.315C335.063 266.825 335.393 267.215 336.053 267.485C336.743 267.755 337.823 268.04 339.293 268.34C341.213 268.7 342.848 269.135 344.198 269.645C345.578 270.125 346.763 270.92 347.753 272.03C348.743 273.14 349.238 274.655 349.238 276.575C349.238 278.075 348.818 279.41 347.978 280.58C347.138 281.75 345.908 282.665 344.288 283.325C342.668 283.985 340.763 284.315 338.573 284.315C334.913 284.315 332.003 283.535 329.843 281.975C327.683 280.415 326.348 278.165 325.838 275.225H335.423C335.603 276.695 336.638 277.43 338.528 277.43C339.548 277.43 340.058 277.07 340.058 276.35C340.058 275.78 339.713 275.36 339.023 275.09C338.333 274.82 337.223 274.55 335.693 274.28C333.743 273.89 332.123 273.47 330.833 273.02C329.573 272.57 328.463 271.805 327.503 270.725C326.543 269.645 326.063 268.16 326.063 266.27C326.063 264.74 326.468 263.375 327.278 262.175C328.088 260.975 329.288 260.03 330.878 259.34C332.468 258.65 334.403 258.305 336.683 258.305Z" fill="#D61355"/>
<g clip-path="url(#clip0_194_41)">
<path d="M163.335 144.07H107.298L106.704 126.84C106.678 126.093 106.815 125.35 107.104 124.661C107.393 123.972 107.828 123.353 108.379 122.849C108.93 122.344 109.584 121.964 110.296 121.736C111.007 121.508 111.76 121.437 112.502 121.528L145.112 125.521H145.116C149.95 125.534 154.582 127.463 157.997 130.885C161.412 134.307 163.332 138.943 163.335 143.778V144.07Z" fill="#D61355"/>
<path d="M138.359 82.9543H99.2759C98.7561 82.9542 98.2414 83.0565 97.7612 83.2553C97.2809 83.4542 96.8446 83.7457 96.477 84.1132C96.1095 84.4808 95.818 84.9171 95.6191 85.3974C95.4203 85.8776 95.318 86.3924 95.3181 86.9121V125.995C95.318 126.515 95.4203 127.03 95.6191 127.51C95.818 127.99 96.1095 128.427 96.477 128.794C96.8446 129.162 97.2809 129.453 97.7612 129.652C98.2414 129.851 98.7561 129.953 99.2759 129.953H138.359C138.879 129.953 139.394 129.851 139.874 129.652C140.354 129.453 140.791 129.162 141.158 128.794C141.526 128.427 141.817 127.99 142.016 127.51C142.215 127.03 142.317 126.515 142.317 125.995V86.9121C142.317 86.3924 142.215 85.8776 142.016 85.3974C141.817 84.9171 141.526 84.4808 141.158 84.1132C140.791 83.7457 140.354 83.4542 139.874 83.2553C139.394 83.0565 138.879 82.9542 138.359 82.9543Z" fill="#CCCCCC"/>
<path d="M129.557 112.179L111.104 115.773C110.01 115.985 108.876 115.754 107.951 115.131C107.027 114.507 106.387 113.543 106.173 112.449L104.754 105.165C104.542 104.07 104.773 102.936 105.396 102.012C106.02 101.087 106.984 100.448 108.078 100.233L126.531 96.64C127.626 96.4281 128.759 96.6591 129.684 97.2822C130.608 97.9054 131.248 98.8698 131.462 99.9639L132.881 107.248C133.093 108.342 132.862 109.476 132.239 110.401C131.616 111.325 130.651 111.965 129.557 112.179Z" fill="#3F3D56"/>
<path d="M125.865 103.574L111.783 106.316C111.525 106.366 111.258 106.312 111.041 106.166C110.823 106.019 110.672 105.792 110.622 105.534C110.572 105.277 110.626 105.01 110.773 104.792C110.92 104.574 111.147 104.424 111.404 104.374L125.487 101.631C125.744 101.581 126.011 101.636 126.229 101.782C126.447 101.929 126.597 102.156 126.647 102.414C126.697 102.671 126.643 102.938 126.497 103.156C126.35 103.373 126.123 103.524 125.865 103.574Z" fill="white"/>
<path d="M123.128 107.635L115.844 109.054C115.586 109.104 115.319 109.049 115.102 108.903C114.884 108.756 114.734 108.529 114.684 108.271C114.633 108.014 114.688 107.747 114.834 107.529C114.981 107.312 115.208 107.161 115.466 107.111L122.75 105.693C122.877 105.668 123.008 105.668 123.136 105.694C123.263 105.72 123.384 105.771 123.492 105.843C123.6 105.916 123.692 106.009 123.764 106.117C123.835 106.226 123.885 106.347 123.91 106.475C123.935 106.602 123.934 106.733 123.908 106.861C123.883 106.988 123.832 107.109 123.759 107.217C123.687 107.325 123.593 107.417 123.485 107.489C123.377 107.56 123.255 107.61 123.128 107.635Z" fill="white"/>
<path d="M142.317 86.9121V92.1067H95.3181V86.9121C95.318 86.3924 95.4203 85.8776 95.6191 85.3974C95.818 84.9171 96.1095 84.4808 96.477 84.1132C96.8446 83.7457 97.2809 83.4542 97.7612 83.2553C98.2414 83.0565 98.7561 82.9542 99.2759 82.9543H138.359C138.879 82.9542 139.394 83.0565 139.874 83.2553C140.354 83.4542 140.79 83.7457 141.158 84.1132C141.526 84.4808 141.817 84.9171 142.016 85.3974C142.215 85.8776 142.317 86.3924 142.317 86.9121Z" fill="#B3B3B3"/>
<path d="M236.169 93.7335C235.898 92.8576 235.438 92.0519 234.821 91.3731C234.205 90.6943 233.447 90.1589 232.601 89.8046C231.756 89.4503 230.843 89.2857 229.926 89.3225C229.01 89.3593 228.113 89.5965 227.299 90.0175L173.529 70.726L171.161 84.1584L224.759 98.8975C225.557 100.219 226.812 101.202 228.286 101.66C229.76 102.118 231.351 102.02 232.758 101.383C234.164 100.747 235.288 99.6165 235.917 98.2066C236.546 96.7966 236.635 95.2051 236.169 93.7335Z" fill="#FFB8B8"/>
<path opacity="0.2" d="M236.169 93.7335C235.898 92.8576 235.438 92.0519 234.821 91.3731C234.205 90.6943 233.447 90.1589 232.601 89.8046C231.756 89.4503 230.843 89.2857 229.926 89.3225C229.01 89.3593 228.113 89.5965 227.299 90.0175L173.529 70.726L171.161 84.1584L224.759 98.8975C225.557 100.219 226.812 101.202 228.286 101.66C229.76 102.118 231.351 102.02 232.758 101.383C234.164 100.747 235.288 99.6165 235.917 98.2066C236.546 96.7966 236.635 95.2051 236.169 93.7335Z" fill="black"/>
<path d="M183.073 73.1736L177.996 86.4385C177.851 86.8159 177.627 87.1578 177.339 87.4408C177.05 87.7237 176.704 87.9412 176.324 88.0784C175.944 88.2156 175.538 88.2692 175.136 88.2357C174.733 88.2021 174.342 88.0821 173.99 87.884L161.65 80.9385C159.723 80.1883 158.173 78.7047 157.338 76.8131C156.504 74.9214 156.453 72.776 157.198 70.8473C157.943 68.9185 159.422 67.3638 161.311 66.5239C163.2 65.684 165.346 65.6275 167.277 66.3668L181.056 69.423C181.451 69.5106 181.822 69.6822 182.144 69.9262C182.466 70.1701 182.732 70.4806 182.924 70.8365C183.115 71.1925 183.227 71.5855 183.253 71.9888C183.279 72.3921 183.218 72.7962 183.073 73.1736Z" fill="#D61355"/>
<path d="M240.401 106.016L221.135 114.773L223.664 124.296C228.549 142.686 229.845 161.844 227.482 180.724L241.569 183.666L253.246 153.89L249.159 120.028L240.401 106.016Z" fill="#D61355"/>
<path d="M278.205 150.095C265.546 150.095 255.23 159.298 254.729 170.822H301.68C301.18 159.298 290.864 150.095 278.205 150.095Z" fill="#3F3D56"/>
<path d="M268.351 152.081C267.692 100.063 238.066 104.848 238.066 104.848C238.066 104.848 238.62 121.04 238.886 121.543C257.765 157.262 226.608 199.137 186.948 191.434C186.201 191.288 185.482 191.141 184.793 190.992C179.768 189.942 175.331 187.018 172.385 182.814C169.439 178.61 168.205 173.442 168.934 168.361C172.841 136.988 153.41 137.543 153.41 137.543H124.997L110.241 124.263C109.72 123.794 109.092 123.46 108.413 123.29C107.733 123.12 107.022 123.119 106.342 123.287C105.661 123.456 105.033 123.788 104.511 124.255C103.989 124.723 103.589 125.311 103.347 125.968L101.448 131.121C101.448 131.121 73.4243 134.04 75.7596 161.48H84.4237C84.4028 162.26 84.434 163.04 84.5172 163.816L149.178 163.29C152.968 163.259 156.313 166.33 156.329 170.121C156.333 171.043 156.151 171.957 155.793 172.808C155.435 173.659 154.91 174.429 154.248 175.072C153.586 175.714 152.801 176.217 151.941 176.55C151.08 176.883 150.161 177.038 149.239 177.007L138.814 176.66C135.603 190.964 143.485 200.597 152.169 206.654C160.346 212.275 170.048 215.255 179.97 215.193H208.29C245.072 215.193 251.494 184.25 251.494 184.25C270.761 176.076 268.351 152.081 268.351 152.081Z" fill="#3F3D56"/>
<path d="M276.453 232.124C294.591 232.124 309.294 217.421 309.294 199.283C309.294 181.146 294.591 166.443 276.453 166.443C258.316 166.443 243.612 181.146 243.612 199.283C243.612 217.421 258.316 232.124 276.453 232.124Z" fill="#3F3D56"/>
<path d="M276.453 207.333C280.899 207.333 284.502 203.729 284.502 199.284C284.502 194.838 280.899 191.234 276.453 191.234C272.008 191.234 268.404 194.838 268.404 199.284C268.404 203.729 272.008 207.333 276.453 207.333Z" fill="white"/>
<path d="M110.644 232.124C131.522 232.124 148.447 215.199 148.447 194.321C148.447 173.443 131.522 156.518 110.644 156.518C89.7656 156.518 72.8404 173.443 72.8404 194.321C72.8404 215.199 89.7656 232.124 110.644 232.124Z" fill="#3F3D56"/>
<path d="M110.644 203.586C115.761 203.586 119.909 199.438 119.909 194.321C119.909 189.204 115.761 185.055 110.644 185.055C105.527 185.055 101.378 189.204 101.378 194.321C101.378 199.438 105.527 203.586 110.644 203.586Z" fill="white"/>
<path d="M221.19 117.361L214.257 98.5326C213.896 97.5513 213.732 96.5085 213.773 95.4636C213.815 94.4188 214.062 93.3924 214.501 92.4431C214.939 91.4937 215.56 90.6401 216.329 89.9308C217.097 89.2215 217.997 88.6705 218.979 88.3092L238.853 80.993C240.579 80.3572 242.414 80.0677 244.252 80.1411C246.091 80.2144 247.897 80.6492 249.567 81.4205C251.238 82.1918 252.74 83.2845 253.988 84.6364C255.236 85.9883 256.206 87.5727 256.842 89.2993C257.415 90.849 257.708 92.4884 257.706 94.1407C257.699 96.2388 257.224 98.3088 256.316 100.2C255.409 102.092 254.091 103.757 252.459 105.076C251.28 106.022 249.955 106.769 248.535 107.288L221.19 117.361Z" fill="#3F3D56"/>
<path d="M257.414 94.1406C257.413 96.1959 256.95 98.2247 256.061 100.078C255.172 101.931 253.879 103.561 252.276 104.848C249.818 104.2 247.531 103.024 245.573 101.402C243.615 99.7801 242.034 97.7513 240.939 95.4567C239.845 93.162 239.263 90.6565 239.235 88.1143C239.206 85.5721 239.732 83.0543 240.775 80.7358C242.778 80.3003 244.852 80.3189 246.847 80.7901C248.841 81.2613 250.705 82.1732 252.301 83.4589C253.896 84.7445 255.184 86.3713 256.069 88.2197C256.954 90.0681 257.414 92.0913 257.414 94.1406Z" fill="#D61355"/>
<path d="M80.7222 165.275C85.2364 165.275 88.8959 160.831 88.8959 155.35C88.8959 149.868 85.2364 145.425 80.7222 145.425C76.208 145.425 72.5485 149.868 72.5485 155.35C72.5485 160.831 76.208 165.275 80.7222 165.275Z" fill="#D61355"/>
<path d="M188.768 190.483H195.925L199.331 171.919L188.766 171.919L188.768 190.483Z" fill="#FFB8B8"/>
<path d="M186.942 188.146L201.038 188.145H201.038C202.218 188.145 203.386 188.378 204.476 188.829C205.566 189.281 206.556 189.942 207.39 190.776C208.225 191.61 208.886 192.601 209.338 193.691C209.789 194.781 210.022 195.949 210.022 197.128V197.42L186.942 197.421L186.942 188.146Z" fill="#2F2E41"/>
<path d="M197.076 182.863C196.992 182.863 196.909 182.859 196.825 182.851L186.919 182.13C186.518 182.093 186.132 181.964 185.789 181.754C185.446 181.544 185.156 181.258 184.941 180.918C184.726 180.577 184.592 180.192 184.549 179.792C184.507 179.392 184.557 178.988 184.695 178.61L197.952 148.826C198.047 148.56 198.085 148.278 198.066 147.997C198.046 147.716 197.968 147.442 197.837 147.192C197.707 146.939 197.524 146.717 197.302 146.54C197.079 146.363 196.822 146.235 196.546 146.165C190.313 144.535 174.318 140.196 160.473 135.12C154.541 132.944 150.806 129.801 149.369 125.777C147.476 120.472 150.277 115.633 150.397 115.43L150.491 115.271L163.519 116.456L177.643 117.657L208.594 134.254C211.188 135.657 213.158 137.985 214.112 140.774C215.066 143.564 214.934 146.611 213.743 149.308L199.473 181.306C199.267 181.77 198.93 182.163 198.505 182.44C198.08 182.716 197.583 182.863 197.076 182.863Z" fill="#2F2E41"/>
<path d="M165.785 57.5296C173.704 57.5296 180.124 51.1096 180.124 43.1901C180.124 35.2705 173.704 28.8505 165.785 28.8505C157.865 28.8505 151.445 35.2705 151.445 43.1901C151.445 51.1096 157.865 57.5296 165.785 57.5296Z" fill="#FFB8B8"/>
<path d="M184.681 192.234H191.839L195.244 173.67L184.68 173.671L184.681 192.234Z" fill="#FFB8B8"/>
<path d="M182.855 189.897L196.951 189.897H196.952C198.131 189.897 199.299 190.129 200.389 190.581C201.479 191.032 202.469 191.694 203.304 192.528C204.138 193.362 204.799 194.352 205.251 195.442C205.702 196.532 205.935 197.7 205.935 198.88V199.172L182.855 199.173L182.855 189.897Z" fill="#2F2E41"/>
<path d="M192.989 184.615C192.906 184.615 192.822 184.611 192.738 184.603L182.832 183.882C182.432 183.845 182.045 183.716 181.702 183.506C181.359 183.295 181.069 183.009 180.854 182.669C180.639 182.329 180.505 181.944 180.462 181.544C180.42 181.144 180.47 180.739 180.608 180.362L193.865 150.577C193.96 150.312 193.998 150.03 193.979 149.748C193.959 149.467 193.881 149.193 193.75 148.943C193.62 148.691 193.437 148.469 193.215 148.291C192.992 148.114 192.735 147.986 192.459 147.916C186.226 146.287 170.232 141.948 156.386 136.871C150.455 134.696 146.719 131.553 145.282 127.528C143.389 122.223 146.19 117.385 146.31 117.182L146.404 117.023L159.432 118.207L173.556 119.408L204.507 136.006C207.101 137.408 209.071 139.736 210.025 142.526C210.979 145.315 210.847 148.362 209.656 151.059L195.386 183.058C195.18 183.521 194.844 183.915 194.418 184.191C193.993 184.468 193.496 184.615 192.989 184.615Z" fill="#2F2E41"/>
<path d="M170.207 65.6608L155.027 60.4062C155.027 60.4062 145.498 67.7275 150.076 85.8898C152.466 95.2622 151.77 105.155 148.091 114.101C147.648 115.208 147.137 116.286 146.562 117.33C146.562 117.33 163.493 137.764 179.256 122.585L173.126 93.101C173.126 93.101 182.759 73.5425 170.207 65.6608Z" fill="#D61355"/>
<path d="M167.565 58.0173C165.524 54.9625 163.913 50.7266 166.16 47.8201C168.378 44.9511 172.753 45.3737 176.15 44.1042C180.882 42.336 183.626 36.7775 182.77 31.7995C181.914 26.8215 177.918 22.6949 173.158 21.0065C168.397 19.318 163.029 19.8671 158.367 21.8115C152.628 24.205 147.706 28.8352 145.641 34.7004C143.577 40.5656 144.681 47.6079 148.963 52.116C153.554 56.9492 160.76 58.2372 167.425 58.1591" fill="#2F2E41"/>
<path d="M154.226 31.9592C151.654 34.0528 147.731 33.1229 144.97 31.2856C142.21 29.4482 139.97 26.8319 136.983 25.3914C131.717 22.8517 125.35 24.54 120.226 27.3531C115.101 30.1662 110.558 34.0526 105.144 36.2602C99.731 38.4678 92.8232 38.5769 88.7241 34.4085C87.7154 37.3311 87.6329 40.4937 88.488 43.4649C89.343 46.4361 91.094 49.0711 93.5019 51.0104C95.9098 52.9497 98.8574 54.0989 101.943 54.3011C105.028 54.5034 108.1 53.7488 110.741 52.1404C116.672 48.5274 119.948 40.952 126.601 38.9578C130.282 37.8543 134.235 38.7431 137.956 39.7057C141.677 40.6684 145.556 41.7085 149.311 40.889C153.066 40.0695 156.578 36.6953 156.101 32.8819L154.226 31.9592Z" fill="#2F2E41"/>
<path d="M235.455 93.1494C235.078 92.3137 234.522 91.5709 233.827 90.9734C233.131 90.3758 232.313 89.938 231.43 89.6907C230.547 89.4435 229.621 89.3929 228.716 89.5424C227.812 89.6919 226.951 90.038 226.194 90.5562L170.456 78.0463L169.763 91.6683L224.77 99.6818C225.725 100.895 227.091 101.715 228.611 101.988C230.13 102.261 231.697 101.967 233.014 101.162C234.331 100.357 235.307 99.0962 235.757 97.6194C236.207 96.1427 236.1 94.5522 235.455 93.1494Z" fill="#FFB8B8"/>
<path d="M180.229 79.2977L176.827 93.0877C176.73 93.48 176.549 93.847 176.298 94.1634C176.047 94.4798 175.73 94.7383 175.37 94.9214C175.009 95.1044 174.614 95.2076 174.21 95.224C173.806 95.2404 173.404 95.1696 173.03 95.0163L159.927 89.6465C157.921 89.1409 156.198 87.8603 155.135 86.0856C154.073 84.3109 153.757 82.1871 154.259 80.1803C154.76 78.1734 156.037 76.4474 157.809 75.381C159.582 74.3146 161.705 73.9948 163.713 74.4919L177.764 75.8245C178.167 75.8628 178.556 75.9873 178.906 76.1896C179.256 76.392 179.558 76.6673 179.792 76.9969C180.026 77.3265 180.186 77.7026 180.261 78.0997C180.336 78.4967 180.325 78.9053 180.229 79.2977Z" fill="#D61355"/>
<path d="M229.017 103.972C231.274 103.972 233.103 102.143 233.103 99.8856C233.103 97.6284 231.274 95.7987 229.017 95.7987C226.759 95.7987 224.93 97.6284 224.93 99.8856C224.93 102.143 226.759 103.972 229.017 103.972Z" fill="#D61355"/>
</g>
<defs>
<linearGradient id="paint0_linear_194_41" x1="104" y1="130.325" x2="115.591" y2="131.957" gradientUnits="userSpaceOnUse">
<stop stop-color="#D61355"/>
<stop offset="1" stop-color="#FF0000"/>
</linearGradient>
<linearGradient id="paint1_linear_194_41" x1="255" y1="157.754" x2="260.697" y2="158.858" gradientUnits="userSpaceOnUse">
<stop stop-color="#D61355"/>
<stop offset="1" stop-color="#FF0000"/>
</linearGradient>
<clipPath id="clip0_194_41">
<rect width="484" height="213" fill="white" transform="translate(-74 20)"/>
</clipPath>
</defs>
</svg>
